<?xml version="1.0" encoding="utf-8" standalone="no"?>
<!DOCTYPE svg PUBLIC "-//W3C//DTD SVG 1.1//EN"
  "http://www.w3.org/Graphics/SVG/1.1/DTD/svg11.dtd">
<svg xmlns:xlink="http://www.w3.org/1999/xlink" width="1080pt" height="1080pt" viewBox="0 0 1080 1080" xmlns="http://www.w3.org/2000/svg" version="1.1">
 <metadata>
  <rdf:RDF xmlns:dc="http://purl.org/dc/elements/1.1/" xmlns:cc="http://creativecommons.org/ns#" xmlns:rdf="http://www.w3.org/1999/02/22-rdf-syntax-ns#">
   <cc:Work>
    <dc:type rdf:resource="http://purl.org/dc/dcmitype/StillImage"/>
    <dc:date>2025-02-25T17:59:57.025877</dc:date>
    <dc:format>image/svg+xml</dc:format>
    <dc:creator>
     <cc:Agent>
      <dc:title>Matplotlib v3.7.5, https://matplotlib.org/</dc:title>
     </cc:Agent>
    </dc:creator>
   </cc:Work>
  </rdf:RDF>
 </metadata>
 <defs>
  <style type="text/css">*{stroke-linejoin: round; stroke-linecap: butt}</style>
 </defs>
 <g id="figure_1">
  <g id="patch_1">
   <path d="M 0 1080 
L 1080 1080 
L 1080 0 
L 0 0 
z
" style="fill: #ffffff"/>
  </g>
  <g id="axes_1">
   <g id="patch_2">
    <path d="M 135 597.665129 
L 972 597.665129 
L 972 493.134871 
L 135 493.134871 
z
" style="fill: #ffffff"/>
   </g>
   <g id="patch_3">
    <path d="M 553.5 571.532565 
C 608.993749 571.532565 662.222088 568.779073 701.462094 563.878514 
C 740.7021 558.977955 762.75 552.330437 762.75 545.4 
C 762.75 538.469563 740.7021 531.822045 701.462094 526.921486 
C 662.222088 522.020927 608.993749 519.267435 553.5 519.267435 
C 498.006251 519.267435 444.777912 522.020927 405.537906 526.921486 
C 366.2979 531.822045 344.25 538.469563 344.25 545.4 
C 344.25 552.330437 366.2979 558.977955 405.537906 563.878514 
C 444.777912 568.779073 498.006251 571.532565 553.5 571.532565 
L 553.5 571.532565 
z
" clip-path="url(#p89f9fa0de0)" style="fill: none; stroke: #2ca02c; stroke-linejoin: miter"/>
   </g>
   <g id="patch_4">
    <path d="M 553.5 561.798998 
C 574.521567 561.798998 594.684974 560.071096 609.549466 556.995843 
C 624.413959 553.920589 632.765915 549.749065 632.765915 545.4 
C 632.765915 541.050935 624.413959 536.879411 609.549466 533.804157 
C 594.684974 530.728904 574.521567 529.001002 553.5 529.001002 
C 532.478433 529.001002 512.315026 530.728904 497.450534 533.804157 
C 482.586041 536.879411 474.234085 541.050935 474.234085 545.4 
C 474.234085 549.749065 482.586041 553.920589 497.450534 556.995843 
C 512.315026 560.071096 532.478433 561.798998 553.5 561.798998 
L 553.5 561.798998 
z
" clip-path="url(#p89f9fa0de0)" style="fill: none; stroke: #d62728; stroke-linejoin: miter"/>
   </g>
   <g id="patch_5">
    <path d="M 553.5 556.442093 
C 562.683728 556.442093 571.492551 555.278628 577.986428 553.207939 
C 584.480305 551.137249 588.129039 548.328397 588.129039 545.4 
C 588.129039 542.471603 584.480305 539.662751 577.986428 537.592061 
C 571.492551 535.521372 562.683728 534.357907 553.5 534.357907 
C 544.316272 534.357907 535.507449 535.521372 529.013572 537.592061 
C 522.519695 539.662751 518.870961 542.471603 518.870961 545.4 
C 518.870961 548.328397 522.519695 551.137249 529.013572 553.207939 
C 535.507449 555.278628 544.316272 556.442093 553.5 556.442093 
L 553.5 556.442093 
z
" clip-path="url(#p89f9fa0de0)" style="fill: none; stroke: #9467bd; stroke-linejoin: miter"/>
   </g>
   <g id="patch_6">
    <path d="M 553.5 552.636299 
C 557.419936 552.636299 561.179849 551.873837 563.951663 550.516836 
C 566.723476 549.159835 568.280883 547.319089 568.280883 545.4 
C 568.280883 543.480911 566.723476 541.640165 563.951663 540.283164 
C 561.179849 538.926163 557.419936 538.163701 553.5 538.163701 
C 549.580064 538.163701 545.820151 538.926163 543.048337 540.283164 
C 540.276524 541.640165 538.719117 543.480911 538.719117 545.4 
C 538.719117 547.319089 540.276524 549.159835 543.048337 550.516836 
C 545.820151 551.873837 549.580064 552.636299 553.5 552.636299 
L 553.5 552.636299 
z
" clip-path="url(#p89f9fa0de0)" style="fill: none; stroke: #8c564b; stroke-linejoin: miter"/>
   </g>
   <g id="patch_7">
    <path d="M 553.5 548.957006 
C 554.577545 548.957006 555.611102 548.582218 556.373041 547.915183 
C 557.134981 547.248149 557.563094 546.343329 557.563094 545.4 
C 557.563094 544.456671 557.134981 543.551851 556.373041 542.884817 
C 555.611102 542.217782 554.577545 541.842994 553.5 541.842994 
C 552.422455 541.842994 551.388898 542.217782 550.626959 542.884817 
C 549.865019 543.551851 549.436906 544.456671 549.436906 545.4 
C 549.436906 546.343329 549.865019 547.248149 550.626959 547.915183 
C 551.388898 548.582218 552.422455 548.957006 553.5 548.957006 
L 553.5 548.957006 
z
" clip-path="url(#p89f9fa0de0)" style="fill: none; stroke: #e377c2; stroke-linejoin: miter"/>
   </g>
   <g id="matplotlib.axis_1">
    <g id="xtick_1">
     <g id="line2d_1">
      <path d="M 221.086767 597.665129 
L 221.086767 493.134871 
" clip-path="url(#p89f9fa0de0)" style="fill: none; stroke: #b0b0b0; stroke-width: 0.8; stroke-linecap: square"/>
     </g>
     <g id="line2d_2">
      <defs>
       <path id="m314cc5e11c" d="M 0 0 
L 0 3.5 
" style="stroke: #000000; stroke-width: 0.8"/>
      </defs>
      <g>
       <use xlink:href="#m314cc5e11c" x="221.086767" y="597.665129" style="stroke: #000000; stroke-width: 0.8"/>
      </g>
     </g>
     <g id="text_1">
      <!-- −400 -->
      <g transform="translate(207.353173 612.263567) scale(0.1 -0.1)">
       <defs>
        <path id="DejaVuSans-2212" d="M 678 2272 
L 4684 2272 
L 4684 1741 
L 678 1741 
L 678 2272 
z
" transform="scale(0.015625)"/>
        <path id="DejaVuSans-34" d="M 2419 4116 
L 825 1625 
L 2419 1625 
L 2419 4116 
z
M 2253 4666 
L 3047 4666 
L 3047 1625 
L 3713 1625 
L 3713 1100 
L 3047 1100 
L 3047 0 
L 2419 0 
L 2419 1100 
L 313 1100 
L 313 1709 
L 2253 4666 
z
" transform="scale(0.015625)"/>
        <path id="DejaVuSans-30" d="M 2034 4250 
Q 1547 4250 1301 3770 
Q 1056 3291 1056 2328 
Q 1056 1369 1301 889 
Q 1547 409 2034 409 
Q 2525 409 2770 889 
Q 3016 1369 3016 2328 
Q 3016 3291 2770 3770 
Q 2525 4250 2034 4250 
z
M 2034 4750 
Q 2819 4750 3233 4129 
Q 3647 3509 3647 2328 
Q 3647 1150 3233 529 
Q 2819 -91 2034 -91 
Q 1250 -91 836 529 
Q 422 1150 422 2328 
Q 422 3509 836 4129 
Q 1250 4750 2034 4750 
z
" transform="scale(0.015625)"/>
       </defs>
       <use xlink:href="#DejaVuSans-2212"/>
       <use xlink:href="#DejaVuSans-34" x="83.789062"/>
       <use xlink:href="#DejaVuSans-30" x="147.412109"/>
       <use xlink:href="#DejaVuSans-30" x="211.035156"/>
      </g>
     </g>
    </g>
    <g id="xtick_2">
     <g id="line2d_3">
      <path d="M 387.293384 597.665129 
L 387.293384 493.134871 
" clip-path="url(#p89f9fa0de0)" style="fill: none; stroke: #b0b0b0; stroke-width: 0.8; stroke-linecap: square"/>
     </g>
     <g id="line2d_4">
      <g>
       <use xlink:href="#m314cc5e11c" x="387.293384" y="597.665129" style="stroke: #000000; stroke-width: 0.8"/>
      </g>
     </g>
     <g id="text_2">
      <!-- −200 -->
      <g transform="translate(373.55979 612.263567) scale(0.1 -0.1)">
       <defs>
        <path id="DejaVuSans-32" d="M 1228 531 
L 3431 531 
L 3431 0 
L 469 0 
L 469 531 
Q 828 903 1448 1529 
Q 2069 2156 2228 2338 
Q 2531 2678 2651 2914 
Q 2772 3150 2772 3378 
Q 2772 3750 2511 3984 
Q 2250 4219 1831 4219 
Q 1534 4219 1204 4116 
Q 875 4013 500 3803 
L 500 4441 
Q 881 4594 1212 4672 
Q 1544 4750 1819 4750 
Q 2544 4750 2975 4387 
Q 3406 4025 3406 3419 
Q 3406 3131 3298 2873 
Q 3191 2616 2906 2266 
Q 2828 2175 2409 1742 
Q 1991 1309 1228 531 
z
" transform="scale(0.015625)"/>
       </defs>
       <use xlink:href="#DejaVuSans-2212"/>
       <use xlink:href="#DejaVuSans-32" x="83.789062"/>
       <use xlink:href="#DejaVuSans-30" x="147.412109"/>
       <use xlink:href="#DejaVuSans-30" x="211.035156"/>
      </g>
     </g>
    </g>
    <g id="xtick_3">
     <g id="line2d_5">
      <path d="M 553.5 597.665129 
L 553.5 493.134871 
" clip-path="url(#p89f9fa0de0)" style="fill: none; stroke: #b0b0b0; stroke-width: 0.8; stroke-linecap: square"/>
     </g>
     <g id="line2d_6">
      <g>
       <use xlink:href="#m314cc5e11c" x="553.5" y="597.665129" style="stroke: #000000; stroke-width: 0.8"/>
      </g>
     </g>
     <g id="text_3">
      <!-- 0 -->
      <g transform="translate(550.31875 612.263567) scale(0.1 -0.1)">
       <use xlink:href="#DejaVuSans-30"/>
      </g>
     </g>
    </g>
    <g id="xtick_4">
     <g id="line2d_7">
      <path d="M 719.706616 597.665129 
L 719.706616 493.134871 
" clip-path="url(#p89f9fa0de0)" style="fill: none; stroke: #b0b0b0; stroke-width: 0.8; stroke-linecap: square"/>
     </g>
     <g id="line2d_8">
      <g>
       <use xlink:href="#m314cc5e11c" x="719.706616" y="597.665129" style="stroke: #000000; stroke-width: 0.8"/>
      </g>
     </g>
     <g id="text_4">
      <!-- 200 -->
      <g transform="translate(710.162866 612.263567) scale(0.1 -0.1)">
       <use xlink:href="#DejaVuSans-32"/>
       <use xlink:href="#DejaVuSans-30" x="63.623047"/>
       <use xlink:href="#DejaVuSans-30" x="127.246094"/>
      </g>
     </g>
    </g>
    <g id="xtick_5">
     <g id="line2d_9">
      <path d="M 885.913233 597.665129 
L 885.913233 493.134871 
" clip-path="url(#p89f9fa0de0)" style="fill: none; stroke: #b0b0b0; stroke-width: 0.8; stroke-linecap: square"/>
     </g>
     <g id="line2d_10">
      <g>
       <use xlink:href="#m314cc5e11c" x="885.913233" y="597.665129" style="stroke: #000000; stroke-width: 0.8"/>
      </g>
     </g>
     <g id="text_5">
      <!-- 400 -->
      <g transform="translate(876.369483 612.263567) scale(0.1 -0.1)">
       <use xlink:href="#DejaVuSans-34"/>
       <use xlink:href="#DejaVuSans-30" x="63.623047"/>
       <use xlink:href="#DejaVuSans-30" x="127.246094"/>
      </g>
     </g>
    </g>
   </g>
   <g id="matplotlib.axis_2">
    <g id="ytick_1">
     <g id="line2d_11">
      <path d="M 135 586.951654 
L 972 586.951654 
" clip-path="url(#p89f9fa0de0)" style="fill: none; stroke: #b0b0b0; stroke-width: 0.8; stroke-linecap: square"/>
     </g>
     <g id="line2d_12">
      <defs>
       <path id="m45c0850250" d="M 0 0 
L -3.5 0 
" style="stroke: #000000; stroke-width: 0.8"/>
      </defs>
      <g>
       <use xlink:href="#m45c0850250" x="135" y="586.951654" style="stroke: #000000; stroke-width: 0.8"/>
      </g>
     </g>
     <g id="text_6">
      <!-- −50 -->
      <g transform="translate(106.895313 590.750873) scale(0.1 -0.1)">
       <defs>
        <path id="DejaVuSans-35" d="M 691 4666 
L 3169 4666 
L 3169 4134 
L 1269 4134 
L 1269 2991 
Q 1406 3038 1543 3061 
Q 1681 3084 1819 3084 
Q 2600 3084 3056 2656 
Q 3513 2228 3513 1497 
Q 3513 744 3044 326 
Q 2575 -91 1722 -91 
Q 1428 -91 1123 -41 
Q 819 9 494 109 
L 494 744 
Q 775 591 1075 516 
Q 1375 441 1709 441 
Q 2250 441 2565 725 
Q 2881 1009 2881 1497 
Q 2881 1984 2565 2268 
Q 2250 2553 1709 2553 
Q 1456 2553 1204 2497 
Q 953 2441 691 2322 
L 691 4666 
z
" transform="scale(0.015625)"/>
       </defs>
       <use xlink:href="#DejaVuSans-2212"/>
       <use xlink:href="#DejaVuSans-35" x="83.789062"/>
       <use xlink:href="#DejaVuSans-30" x="147.412109"/>
      </g>
     </g>
    </g>
    <g id="ytick_2">
     <g id="line2d_13">
      <path d="M 135 545.4 
L 972 545.4 
" clip-path="url(#p89f9fa0de0)" style="fill: none; stroke: #b0b0b0; stroke-width: 0.8; stroke-linecap: square"/>
     </g>
     <g id="line2d_14">
      <g>
       <use xlink:href="#m45c0850250" x="135" y="545.4" style="stroke: #000000; stroke-width: 0.8"/>
      </g>
     </g>
     <g id="text_7">
      <!-- 0 -->
      <g transform="translate(121.6375 549.199219) scale(0.1 -0.1)">
       <use xlink:href="#DejaVuSans-30"/>
      </g>
     </g>
    </g>
    <g id="ytick_3">
     <g id="line2d_15">
      <path d="M 135 503.848346 
L 972 503.848346 
" clip-path="url(#p89f9fa0de0)" style="fill: none; stroke: #b0b0b0; stroke-width: 0.8; stroke-linecap: square"/>
     </g>
     <g id="line2d_16">
      <g>
       <use xlink:href="#m45c0850250" x="135" y="503.848346" style="stroke: #000000; stroke-width: 0.8"/>
      </g>
     </g>
     <g id="text_8">
      <!-- 50 -->
      <g transform="translate(115.275 507.647565) scale(0.1 -0.1)">
       <use xlink:href="#DejaVuSans-35"/>
       <use xlink:href="#DejaVuSans-30" x="63.623047"/>
      </g>
     </g>
    </g>
   </g>
   <g id="patch_8">
    <path d="M 135 597.665129 
L 135 493.134871 
" style="fill: none; stroke: #000000; stroke-width: 0.8; stroke-linejoin: miter; stroke-linecap: square"/>
   </g>
   <g id="patch_9">
    <path d="M 972 597.665129 
L 972 493.134871 
" style="fill: none; stroke: #000000; stroke-width: 0.8; stroke-linejoin: miter; stroke-linecap: square"/>
   </g>
   <g id="patch_10">
    <path d="M 135 597.665129 
L 972 597.665129 
" style="fill: none; stroke: #000000; stroke-width: 0.8; stroke-linejoin: miter; stroke-linecap: square"/>
   </g>
   <g id="patch_11">
    <path d="M 135 493.134871 
L 972 493.134871 
" style="fill: none; stroke: #000000; stroke-width: 0.8; stroke-linejoin: miter; stroke-linecap: square"/>
   </g>
   <g id="legend_1">
    <g id="patch_12">
     <path d="M 917.096875 574.525496 
L 965 574.525496 
Q 967 574.525496 967 572.525496 
L 967 500.134871 
Q 967 498.134871 965 498.134871 
L 917.096875 498.134871 
Q 915.096875 498.134871 915.096875 500.134871 
L 915.096875 572.525496 
Q 915.096875 574.525496 917.096875 574.525496 
z
" style="fill: #ffffff; opacity: 0.8; stroke: #cccccc; stroke-linejoin: miter"/>
    </g>
    <g id="patch_13">
     <path d="M 919.096875 509.733308 
L 939.096875 509.733308 
L 939.096875 502.733308 
L 919.096875 502.733308 
L 919.096875 509.733308 
z
" style="fill: none; stroke: #2ca02c; stroke-linejoin: miter"/>
    </g>
    <g id="text_9">
     <!-- 2.0 -->
     <g transform="translate(947.096875 509.733308) scale(0.1 -0.1)">
      <defs>
       <path id="DejaVuSans-2e" d="M 684 794 
L 1344 794 
L 1344 0 
L 684 0 
L 684 794 
z
" transform="scale(0.015625)"/>
      </defs>
      <use xlink:href="#DejaVuSans-32"/>
      <use xlink:href="#DejaVuSans-2e" x="63.623047"/>
      <use xlink:href="#DejaVuSans-30" x="95.410156"/>
     </g>
    </g>
    <g id="patch_14">
     <path d="M 919.096875 524.411433 
L 939.096875 524.411433 
L 939.096875 517.411433 
L 919.096875 517.411433 
L 919.096875 524.411433 
z
" style="fill: none; stroke: #d62728; stroke-linejoin: miter"/>
    </g>
    <g id="text_10">
     <!-- 3.0 -->
     <g transform="translate(947.096875 524.411433) scale(0.1 -0.1)">
      <defs>
       <path id="DejaVuSans-33" d="M 2597 2516 
Q 3050 2419 3304 2112 
Q 3559 1806 3559 1356 
Q 3559 666 3084 287 
Q 2609 -91 1734 -91 
Q 1441 -91 1130 -33 
Q 819 25 488 141 
L 488 750 
Q 750 597 1062 519 
Q 1375 441 1716 441 
Q 2309 441 2620 675 
Q 2931 909 2931 1356 
Q 2931 1769 2642 2001 
Q 2353 2234 1838 2234 
L 1294 2234 
L 1294 2753 
L 1863 2753 
Q 2328 2753 2575 2939 
Q 2822 3125 2822 3475 
Q 2822 3834 2567 4026 
Q 2313 4219 1838 4219 
Q 1578 4219 1281 4162 
Q 984 4106 628 3988 
L 628 4550 
Q 988 4650 1302 4700 
Q 1616 4750 1894 4750 
Q 2613 4750 3031 4423 
Q 3450 4097 3450 3541 
Q 3450 3153 3228 2886 
Q 3006 2619 2597 2516 
z
" transform="scale(0.015625)"/>
      </defs>
      <use xlink:href="#DejaVuSans-33"/>
      <use xlink:href="#DejaVuSans-2e" x="63.623047"/>
      <use xlink:href="#DejaVuSans-30" x="95.410156"/>
     </g>
    </g>
    <g id="patch_15">
     <path d="M 919.096875 539.089558 
L 939.096875 539.089558 
L 939.096875 532.089558 
L 919.096875 532.089558 
L 919.096875 539.089558 
z
" style="fill: none; stroke: #9467bd; stroke-linejoin: miter"/>
    </g>
    <g id="text_11">
     <!-- 4.0 -->
     <g transform="translate(947.096875 539.089558) scale(0.1 -0.1)">
      <use xlink:href="#DejaVuSans-34"/>
      <use xlink:href="#DejaVuSans-2e" x="63.623047"/>
      <use xlink:href="#DejaVuSans-30" x="95.410156"/>
     </g>
    </g>
    <g id="patch_16">
     <path d="M 919.096875 553.767683 
L 939.096875 553.767683 
L 939.096875 546.767683 
L 919.096875 546.767683 
L 919.096875 553.767683 
z
" style="fill: none; stroke: #8c564b; stroke-linejoin: miter"/>
    </g>
    <g id="text_12">
     <!-- 5.0 -->
     <g transform="translate(947.096875 553.767683) scale(0.1 -0.1)">
      <use xlink:href="#DejaVuSans-35"/>
      <use xlink:href="#DejaVuSans-2e" x="63.623047"/>
      <use xlink:href="#DejaVuSans-30" x="95.410156"/>
     </g>
    </g>
    <g id="patch_17">
     <path d="M 919.096875 568.445808 
L 939.096875 568.445808 
L 939.096875 561.445808 
L 919.096875 561.445808 
L 919.096875 568.445808 
z
" style="fill: none; stroke: #e377c2; stroke-linejoin: miter"/>
    </g>
    <g id="text_13">
     <!-- 6.0 -->
     <g transform="translate(947.096875 568.445808) scale(0.1 -0.1)">
      <defs>
       <path id="DejaVuSans-36" d="M 2113 2584 
Q 1688 2584 1439 2293 
Q 1191 2003 1191 1497 
Q 1191 994 1439 701 
Q 1688 409 2113 409 
Q 2538 409 2786 701 
Q 3034 994 3034 1497 
Q 3034 2003 2786 2293 
Q 2538 2584 2113 2584 
z
M 3366 4563 
L 3366 3988 
Q 3128 4100 2886 4159 
Q 2644 4219 2406 4219 
Q 1781 4219 1451 3797 
Q 1122 3375 1075 2522 
Q 1259 2794 1537 2939 
Q 1816 3084 2150 3084 
Q 2853 3084 3261 2657 
Q 3669 2231 3669 1497 
Q 3669 778 3244 343 
Q 2819 -91 2113 -91 
Q 1303 -91 875 529 
Q 447 1150 447 2328 
Q 447 3434 972 4092 
Q 1497 4750 2381 4750 
Q 2619 4750 2861 4703 
Q 3103 4656 3366 4563 
z
" transform="scale(0.015625)"/>
      </defs>
      <use xlink:href="#DejaVuSans-36"/>
      <use xlink:href="#DejaVuSans-2e" x="63.623047"/>
      <use xlink:href="#DejaVuSans-30" x="95.410156"/>
     </g>
    </g>
   </g>
  </g>
 </g>
 <defs>
  <clipPath id="p89f9fa0de0">
   <rect x="135" y="493.134871" width="837" height="104.530259"/>
  </clipPath>
 </defs>
</svg>
